<svg width="33" height="29" viewBox="0 0 33 29" fill="none" xmlns="http://www.w3.org/2000/svg">
<path opacity="0.4" d="M31.1674 3.55566H9.34521L12.2542 17.7782H28.5407C28.8429 17.7782 29.1362 17.6755 29.3724 17.4869C29.6086 17.2983 29.7737 17.0351 29.8407 16.7404L32.4669 5.18459C32.5452 4.8398 32.4834 4.47802 32.295 4.1788C32.1067 3.87958 31.8072 3.66742 31.4624 3.589C31.3656 3.5668 31.2667 3.55561 31.1674 3.55566ZM25.3895 11.1114C25.3895 11.3471 25.2958 11.5732 25.1291 11.7399C24.9624 11.9067 24.7363 12.0003 24.5006 12.0003H22.2783V14.2226C22.2783 14.4583 22.1846 14.6844 22.0179 14.8511C21.8512 15.0178 21.6251 15.1115 21.3894 15.1115H20.5005C20.2647 15.1115 20.0386 15.0178 19.8719 14.8511C19.7052 14.6844 19.6116 14.4583 19.6116 14.2226V12.0003H17.3893C17.1535 12.0003 16.9274 11.9067 16.7607 11.7399C16.594 11.5732 16.5004 11.3471 16.5004 11.1114V10.2225C16.5004 9.98673 16.594 9.76063 16.7607 9.59393C16.9274 9.42723 17.1535 9.33358 17.3893 9.33358H19.6116V7.1113C19.6116 6.87555 19.7052 6.64945 19.8719 6.48275C20.0386 6.31605 20.2647 6.22239 20.5005 6.22239H21.3894C21.6251 6.22239 21.8512 6.31605 22.0179 6.48275C22.1846 6.64945 22.2783 6.87555 22.2783 7.1113V9.33358H24.5006C24.7363 9.33358 24.9624 9.42723 25.1291 9.59393C25.2958 9.76063 25.3895 9.98673 25.3895 10.2225V11.1114Z" fill="white" fill-opacity="0.6"/>
<path d="M28.524 22.5339L28.8307 21.1849C28.875 20.9897 28.8749 20.787 28.8302 20.5919C28.7855 20.3967 28.6975 20.2141 28.5726 20.0576C28.4477 19.9012 28.2892 19.7748 28.1088 19.688C27.9285 19.6011 27.7308 19.556 27.5306 19.556H12.6181L8.83353 1.06614C8.77204 0.765534 8.60875 0.495338 8.37122 0.301121C8.13368 0.106904 7.83643 0.000550575 7.52961 0L1.83336 0C1.47973 0 1.14059 0.140479 0.890533 0.390533C0.640479 0.640588 0.5 0.979734 0.5 1.33336L0.5 2.22227C0.5 2.5759 0.640479 2.91505 0.890533 3.1651C1.14059 3.41516 1.47973 3.55564 1.83336 3.55564H5.71568L9.61855 22.6355C9.05315 22.9598 8.6039 23.4536 8.33421 24.0469C8.06451 24.6403 7.988 25.3035 8.11547 25.9427C8.24295 26.5819 8.56796 27.1649 9.04464 27.6095C9.52132 28.0541 10.1256 28.3377 10.7721 28.4203C11.4187 28.503 12.0749 28.3804 12.648 28.0701C13.2212 27.7597 13.6824 27.2772 13.9666 26.6905C14.2507 26.1039 14.3435 25.4429 14.2317 24.8007C14.1199 24.1586 13.8093 23.5678 13.3436 23.1116H24.9906C24.5184 23.5743 24.2058 24.1753 24.0982 24.8276C23.9906 25.4798 24.0936 26.1494 24.3922 26.7392C24.6907 27.329 25.1694 27.8083 25.7588 28.1077C26.3482 28.4071 27.0176 28.511 27.67 28.4044C28.3224 28.2977 28.9239 27.986 29.3872 27.5144C29.8505 27.0429 30.1515 26.436 30.2467 25.7818C30.3419 25.1276 30.2262 24.4602 29.9164 23.8762C29.6067 23.2922 29.119 22.822 28.524 22.5339ZM17.3893 12.0003H19.6116V14.2226C19.6116 14.4583 19.7052 14.6844 19.8719 14.8511C20.0386 15.0178 20.2647 15.1115 20.5005 15.1115H21.3894C21.6251 15.1115 21.8512 15.0178 22.0179 14.8511C22.1846 14.6844 22.2783 14.4583 22.2783 14.2226V12.0003H24.5006C24.7363 12.0003 24.9624 11.9066 25.1291 11.7399C25.2958 11.5732 25.3895 11.3471 25.3895 11.1114V10.2225C25.3895 9.98671 25.2958 9.76061 25.1291 9.59391C24.9624 9.4272 24.7363 9.33355 24.5006 9.33355H22.2783V7.11128C22.2783 6.87552 22.1846 6.64943 22.0179 6.48272C21.8512 6.31602 21.6251 6.22237 21.3894 6.22237H20.5005C20.2647 6.22237 20.0386 6.31602 19.8719 6.48272C19.7052 6.64943 19.6116 6.87552 19.6116 7.11128V9.33355H17.3893C17.1535 9.33355 16.9274 9.4272 16.7607 9.59391C16.594 9.76061 16.5004 9.98671 16.5004 10.2225V11.1114C16.5004 11.3471 16.594 11.5732 16.7607 11.7399C16.9274 11.9066 17.1535 12.0003 17.3893 12.0003Z" fill="white"/>
</svg>
