<svg width="32" height="22" viewBox="0 0 32 22" fill="none" xmlns="http://www.w3.org/2000/svg">
<g clip-path="url(#clip0_3_159)">
<path d="M27.3333 0H4.66666C2.45752 0 0.666656 1.79086 0.666656 4V18C0.666656 20.2091 2.45752 22 4.66666 22H27.3333C29.5425 22 31.3333 20.2091 31.3333 18V4C31.3333 1.79086 29.5425 0 27.3333 0Z" fill="white"/>
<path fill-rule="evenodd" clip-rule="evenodd" d="M9.97638 14.9034H8.11858L6.72546 9.34296C6.65933 9.08716 6.51893 8.86109 6.31241 8.75449C5.797 8.48669 5.22906 8.27349 4.6095 8.16603V7.95196H7.60224C8.01531 7.95196 8.32511 8.27349 8.37671 8.64696L9.09958 12.6579L10.9564 7.95196H12.7626L9.97638 14.9034ZM13.7952 14.9034H12.0407L13.4855 7.95196H15.24L13.7952 14.9034ZM17.51 9.87769C17.5616 9.50329 17.8714 9.28923 18.2328 9.28923C18.8007 9.23549 19.4194 9.34296 19.9357 9.60989L20.2455 8.11323C19.7292 7.89916 19.1612 7.79163 18.6458 7.79163C16.9429 7.79163 15.7038 8.75449 15.7038 10.0908C15.7038 11.1075 16.5815 11.6413 17.2011 11.9628C17.8714 12.2835 18.1295 12.4976 18.0779 12.8182C18.0779 13.2992 17.5616 13.5133 17.0462 13.5133C16.4266 13.5133 15.807 13.353 15.24 13.0851L14.9302 14.5827C15.5498 14.8496 16.2201 14.9571 16.8396 14.9571C18.7491 15.01 19.9357 14.048 19.9357 12.6042C19.9357 10.7859 17.51 10.6793 17.51 9.87769ZM26.0762 14.9034L24.683 7.95196H23.1866C22.8768 7.95196 22.567 8.16603 22.4638 8.48669L19.8841 14.9034H21.6902L22.0508 13.8876H24.27L24.4765 14.9034H26.0762ZM23.4448 9.82396L23.9602 12.4438H22.5154L23.4448 9.82396Z" fill="#172B85"/>
</g>
<defs>
<clipPath id="clip0_3_159">
<rect width="30.6667" height="22" fill="white" transform="translate(0.666656)"/>
</clipPath>
</defs>
</svg>
