<svg width="33" height="22" viewBox="0 0 33 22" fill="none" xmlns="http://www.w3.org/2000/svg">
<g clip-path="url(#clip0_3_133)">
<path d="M28.0833 0H4C1.79086 0 0 1.79086 0 4V18C0 20.2091 1.79086 22 4 22H28.0833C30.2925 22 32.0833 20.2091 32.0833 18V4C32.0833 1.79086 30.2925 0 28.0833 0Z" fill="white"/>
<path fill-rule="evenodd" clip-rule="evenodd" d="M15.1526 14.4448V11.6756H16.5819C17.1675 11.6756 17.6619 11.4794 18.0648 11.0924L18.1615 10.9942C18.8977 10.1929 18.8493 8.94457 18.0648 8.20324C17.6726 7.81077 17.1353 7.59817 16.5819 7.60904H14.2875V14.4448H15.1526ZM15.1527 10.8362V8.44851H16.6037C16.9153 8.44851 17.2109 8.56844 17.4313 8.78651C17.8988 9.24437 17.9095 10.0076 17.4581 10.4818C17.2378 10.7162 16.9261 10.847 16.6037 10.8362H15.1527ZM22.1967 10.133C21.826 9.78957 21.3209 9.61511 20.6815 9.61511C19.8595 9.61511 19.2415 9.92037 18.8332 10.5254L19.5962 11.0106C19.8756 10.5963 20.2571 10.3892 20.7407 10.3892C21.0469 10.3892 21.3424 10.5036 21.5735 10.7108C21.7991 10.907 21.9281 11.1905 21.9281 11.4903V11.692C21.595 11.5066 21.1759 11.4086 20.6601 11.4086C20.0583 11.4086 19.5747 11.5503 19.2147 11.8392C18.8547 12.1281 18.672 12.5097 18.672 12.9948C18.6613 13.4364 18.8493 13.8561 19.1825 14.1396C19.5209 14.4448 19.9508 14.5975 20.4559 14.5975C21.0523 14.5975 21.5251 14.3304 21.8851 13.7962H21.9227V14.4448H22.7502V11.5612C22.7502 10.9561 22.5675 10.4764 22.1967 10.133ZM19.8489 13.5836C19.6715 13.4528 19.5641 13.2402 19.5641 13.0112C19.5641 12.755 19.6823 12.5424 19.9133 12.3734C20.1498 12.2044 20.4454 12.1172 20.7947 12.1172C21.2783 12.1118 21.6545 12.2208 21.9232 12.4388C21.9232 12.8095 21.7781 13.1311 21.4933 13.4037C21.2353 13.6654 20.886 13.8125 20.5206 13.8125C20.2788 13.818 20.0423 13.7362 19.8489 13.5836ZM24.6093 16.5L27.5 9.76771H26.5597L25.2218 13.1256H25.2057L23.8355 9.76771H22.8953L24.792 14.145L23.7173 16.5H24.6093Z" fill="#3C4043"/>
<path d="M12.166 11.076C12.166 10.8089 12.1446 10.5418 12.1016 10.2802H8.45325V11.7901H10.5434C10.4574 12.2753 10.178 12.7114 9.76965 12.9839V13.9652H11.0162C11.747 13.2838 12.166 12.2753 12.166 11.076Z" fill="#4285F4"/>
<path d="M8.45345 14.9137C9.49585 14.9137 10.377 14.5648 11.0164 13.9652L9.76985 12.984C9.42058 13.2238 8.97465 13.3601 8.45345 13.3601C7.44332 13.3601 6.58898 12.6678 6.28271 11.7411H4.99854V12.755C5.65406 14.0797 6.99198 14.9137 8.45345 14.9137Z" fill="#34A853"/>
<path d="M6.28289 11.7411C6.12167 11.2559 6.12167 10.7272 6.28289 10.2366V9.22815H4.99851C4.44499 10.3347 4.44499 11.643 4.99851 12.7496L6.28289 11.7411Z" fill="#FBBC04"/>
<path d="M8.45345 8.61749C9.00685 8.60663 9.53878 8.81923 9.93638 9.20623L11.0432 8.08329C10.3394 7.41823 9.41525 7.05303 8.45345 7.06396C6.99198 7.06396 5.65406 7.90343 4.99854 9.22803L6.28271 10.242C6.58898 9.30983 7.44332 8.61749 8.45345 8.61749Z" fill="#EA4335"/>
</g>
<defs>
<clipPath id="clip0_3_133">
<rect width="32.6667" height="22" fill="white"/>
</clipPath>
</defs>
</svg>
