<svg width="31" height="22" viewBox="0 0 31 22" fill="none" xmlns="http://www.w3.org/2000/svg">
<g clip-path="url(#clip0_3_130)">
<path d="M27 0H4.33337C2.12423 0 0.333374 1.79086 0.333374 4V18C0.333374 20.2091 2.12423 22 4.33337 22H27C29.2092 22 31 20.2091 31 18V4C31 1.79086 29.2092 0 27 0Z" fill="white"/>
<path fill-rule="evenodd" clip-rule="evenodd" d="M8.72739 7.64783C8.46993 7.97043 8.05813 8.22483 7.64626 8.18849C7.59479 7.75236 7.79639 7.28896 8.03239 7.00269C8.28979 6.67103 8.74026 6.4348 9.10486 6.41663C9.14779 6.87096 8.98046 7.31623 8.72739 7.64783ZM9.10059 8.27483C8.73773 8.25269 8.40666 8.39036 8.13926 8.50156C7.96719 8.57316 7.82146 8.63376 7.71059 8.63376C7.58619 8.63376 7.43446 8.56989 7.26406 8.49823C7.04079 8.40429 6.7856 8.29696 6.51795 8.30209C5.90447 8.31116 5.33389 8.67916 5.02072 9.26523C4.37721 10.4374 4.85341 12.173 5.47547 13.127C5.78006 13.5996 6.14471 14.1175 6.6252 14.0993C6.83659 14.0908 6.98865 14.0225 7.14599 13.9518C7.32719 13.8704 7.51539 13.7858 7.80926 13.7858C8.09293 13.7858 8.27293 13.8682 8.44566 13.9472C8.60993 14.0224 8.76773 14.0946 9.00193 14.0902C9.49953 14.0812 9.81273 13.6177 10.1173 13.1452C10.446 12.6381 10.5905 12.1432 10.6124 12.068L10.6149 12.0594C10.6145 12.0588 10.6104 12.0568 10.6032 12.0534C10.4933 12.0001 9.65346 11.5929 9.64539 10.501C9.63733 9.58456 10.3115 9.12023 10.4177 9.04709C10.4242 9.04263 10.4285 9.03963 10.4305 9.03809C10.0015 8.36569 9.33226 8.29303 9.10059 8.27483ZM12.5455 14.0402V6.95729H15.0552C16.3508 6.95729 17.256 7.90229 17.256 9.28343C17.256 10.6646 16.3337 11.6187 15.0209 11.6187H13.5837V14.0402H12.5455ZM13.5836 7.88409H14.7805C15.6815 7.88409 16.1963 8.39296 16.1963 9.28796C16.1963 10.183 15.6815 10.6964 14.7763 10.6964H13.5836V7.88409ZM20.6838 13.1906C20.4093 13.745 19.8043 14.0948 19.1523 14.0948C18.187 14.0948 17.5135 13.486 17.5135 12.5682C17.5135 11.6596 18.1655 11.1371 19.3711 11.0598L20.6667 10.9781V10.5874C20.6667 10.0104 20.3106 9.69689 19.6757 9.69689C19.1523 9.69689 18.7705 9.98309 18.6932 10.4192H17.758C17.788 9.50149 18.6031 8.83363 19.7057 8.83363C20.894 8.83363 21.6662 9.49243 21.6662 10.5147V14.0402H20.7053V13.1906H20.6838ZM19.4311 13.2542C18.8776 13.2542 18.5259 12.9726 18.5259 12.541C18.5259 12.0957 18.8647 11.8368 19.5125 11.7959L20.6666 11.7186V12.1184C20.6666 12.7818 20.1346 13.2542 19.4311 13.2542ZM24.8537 14.3174C24.4376 15.5577 23.9614 15.9666 22.9489 15.9666C22.8717 15.9666 22.6143 15.9575 22.5543 15.9394V15.0898C22.6186 15.0988 22.7773 15.1079 22.8588 15.1079C23.3179 15.1079 23.5753 14.9035 23.734 14.3719L23.8284 14.0584L22.0695 8.90183H23.1549L24.3775 13.0862H24.3989L25.6216 8.90183H26.677L24.8537 14.3174Z" fill="#270E24"/>
</g>
<defs>
<clipPath id="clip0_3_130">
<rect width="30.6667" height="22" fill="white" transform="translate(0.333374)"/>
</clipPath>
</defs>
</svg>
