<svg width="32" height="22" viewBox="0 0 32 22" fill="none" xmlns="http://www.w3.org/2000/svg">
<g clip-path="url(#clip0_3_146)">
<path d="M27.3334 0H4.66669C2.45755 0 0.666687 1.79086 0.666687 4V18C0.666687 20.2091 2.45755 22 4.66669 22H27.3334C29.5425 22 31.3334 20.2091 31.3334 18V4C31.3334 1.79086 29.5425 0 27.3334 0Z" fill="#1F72CD"/>
<path fill-rule="evenodd" clip-rule="evenodd" d="M6.16453 7.79163L3.29529 14.4345H6.73017L7.15599 13.3754H8.12931L8.55517 14.4345H12.336V13.6261L12.6729 14.4345H14.6286L14.9655 13.609V14.4345H22.8286L23.7848 13.4028L24.68 14.4345L28.7187 14.443L25.8404 11.1316L28.7187 7.79163H24.7426L23.812 8.80423L22.9448 7.79163H14.3908L13.6563 9.50623L12.9045 7.79163H9.47684V8.57249L9.09551 7.79163H6.16453ZM6.82915 8.73489H8.50351L10.4066 13.2395V8.73489H12.2408L13.7108 11.9647L15.0655 8.73489H16.8905V13.5016H15.78L15.771 9.76643L14.152 13.5016H13.1586L11.5306 9.76643V13.5016H9.24617L8.81311 12.433H6.47324L6.04104 13.5007H4.81705L6.82915 8.73489ZM22.4218 8.73489H17.9064V13.4988H22.3519L23.7848 11.92L25.1658 13.4988H26.6095L24.5111 11.1307L26.6095 8.73489H25.2284L23.8029 10.2956L22.4218 8.73489ZM7.64364 9.54143L6.87276 11.4451H8.41364L7.64364 9.54143ZM19.0215 10.592V9.72183V9.72103H21.839L23.0684 11.1126L21.7845 12.5118H19.0215V11.5619H21.4848V10.592H19.0215Z" fill="white"/>
</g>
<defs>
<clipPath id="clip0_3_146">
<rect width="30.6667" height="22" fill="white" transform="translate(0.666687)"/>
</clipPath>
</defs>
</svg>
