<svg width="31" height="22" viewBox="0 0 31 22" fill="none" xmlns="http://www.w3.org/2000/svg">
<g clip-path="url(#clip0_3_149)">
<path d="M27 0H4.33334C2.1242 0 0.333344 1.79086 0.333344 4V18C0.333344 20.2091 2.1242 22 4.33334 22H27C29.2091 22 31 20.2091 31 18V4C31 1.79086 29.2091 0 27 0Z" fill="white"/>
<path d="M17.9404 11.1163C17.9404 14.611 15.2635 17.4441 11.9614 17.4441C8.65936 17.4441 5.98248 14.611 5.98248 11.1163C5.98248 7.62161 8.65936 4.78857 11.9614 4.78857C15.2635 4.78857 17.9404 7.62161 17.9404 11.1163Z" fill="#ED0006"/>
<path d="M25.6968 11.1163C25.6968 14.611 23.0199 17.4441 19.7178 17.4441C16.4158 17.4441 13.7389 14.611 13.7389 11.1163C13.7389 7.62161 16.4158 4.78857 19.7178 4.78857C23.0199 4.78857 25.6968 7.62161 25.6968 11.1163Z" fill="#0099DF"/>
<path fill-rule="evenodd" clip-rule="evenodd" d="M15.8396 6.30029C17.1252 7.46089 17.9403 9.18789 17.9403 11.1164C17.9403 13.0449 17.1252 14.7719 15.8396 15.9325C14.5541 14.7719 13.739 13.0449 13.739 11.1164C13.739 9.18789 14.5541 7.46089 15.8396 6.30029Z" fill="#6C6BBD"/>
</g>
<defs>
<clipPath id="clip0_3_149">
<rect width="30.6667" height="22" fill="white" transform="translate(0.333344)"/>
</clipPath>
</defs>
</svg>
