<svg width="31" height="22" viewBox="0 0 31 22" fill="none" xmlns="http://www.w3.org/2000/svg">
<g clip-path="url(#clip0_3_154)">
<path d="M26.6667 0H4C1.79086 0 0 1.79086 0 4V18C0 20.2091 1.79086 22 4 22H26.6667C28.8758 22 30.6667 20.2091 30.6667 18V4C30.6667 1.79086 28.8758 0 26.6667 0Z" fill="white"/>
<path fill-rule="evenodd" clip-rule="evenodd" d="M15.5063 15.9324C14.4622 16.875 13.1079 17.4441 11.6281 17.4441C8.32601 17.4441 5.64914 14.611 5.64914 11.1163C5.64914 7.62161 8.32601 4.78857 11.6281 4.78857C13.1079 4.78857 14.4622 5.3576 15.5063 6.30019C16.5503 5.3576 17.9046 4.78857 19.3845 4.78857C22.6865 4.78857 25.3634 7.62161 25.3634 11.1163C25.3634 14.611 22.6865 17.4441 19.3845 17.4441C17.9046 17.4441 16.5503 16.875 15.5063 15.9324Z" fill="#ED0006"/>
<path fill-rule="evenodd" clip-rule="evenodd" d="M15.5063 15.9324C16.7918 14.7718 17.607 13.0448 17.607 11.1163C17.607 9.18781 16.7918 7.46081 15.5063 6.30019C16.5503 5.3576 17.9046 4.78857 19.3845 4.78857C22.6865 4.78857 25.3634 7.62161 25.3634 11.1163C25.3634 14.611 22.6865 17.4441 19.3845 17.4441C17.9046 17.4441 16.5503 16.875 15.5063 15.9324Z" fill="#F9A000"/>
<path fill-rule="evenodd" clip-rule="evenodd" d="M15.5063 6.30029C16.7918 7.46089 17.6069 9.18789 17.6069 11.1164C17.6069 13.0449 16.7918 14.7719 15.5063 15.9325C14.2207 14.7719 13.4056 13.0449 13.4056 11.1164C13.4056 9.18789 14.2207 7.46089 15.5063 6.30029Z" fill="#FF5E00"/>
</g>
<defs>
<clipPath id="clip0_3_154">
<rect width="30.6667" height="22" fill="white"/>
</clipPath>
</defs>
</svg>
