<svg width="39" height="24" viewBox="0 0 39 24" fill="none" xmlns="http://www.w3.org/2000/svg">
<g clip-path="url(#clip0_3_140)">
<path opacity="0.07" d="M35.6667 0H3.66669C1.96669 0 0.666687 1.3 0.666687 3V21C0.666687 22.7 2.06669 24 3.66669 24H35.6667C37.3667 24 38.6667 22.7 38.6667 21V3C38.6667 1.3 37.2667 0 35.6667 0Z" fill="#270E24"/>
<path d="M35.6667 1C36.7667 1 37.6667 1.9 37.6667 3V21C37.6667 22.1 36.7667 23 35.6667 23H3.66669C2.56669 23 1.66669 22.1 1.66669 21V3C1.66669 1.9 2.56669 1 3.66669 1H35.6667Z" fill="white"/>
<path d="M16.7047 18.776C16.6967 18.768 16.6947 17.899 16.6967 15.472L16.6987 12.179L17.1157 12.174C17.5577 12.168 17.6487 12.162 17.8457 12.124C18.3727 12.022 18.7727 11.754 19.0087 11.347C19.1697 11.069 19.2437 10.781 19.2537 10.395C19.2646 10.1793 19.2413 9.96333 19.1847 9.75497C19.1044 9.43972 18.9279 9.15731 18.6797 8.94697C18.5608 8.84201 18.4257 8.75692 18.2797 8.69497C18.0724 8.60257 17.8516 8.54447 17.6257 8.52297C17.4585 8.51337 17.2911 8.5087 17.1237 8.50897L16.6987 8.50397V5.21997H19.2117C21.8037 5.21997 21.8137 5.21997 22.3387 5.24997C23.6007 5.32597 24.7507 5.52997 25.7057 5.84597C27.6287 6.48297 28.9157 7.57597 29.5947 9.15297C29.7867 9.59997 29.9357 10.125 30.0247 10.668C30.0627 10.908 30.0997 11.236 30.0887 11.246C29.8327 11.2503 29.5767 11.2516 29.3207 11.25L28.5597 11.247L28.5547 9.87997L28.5507 8.51297H27.5017L27.5007 10.338C27.4987 11.793 27.5007 12.165 27.5097 12.17C27.5157 12.173 28.1057 12.176 28.8227 12.176H30.1227V12.259C30.1227 12.427 30.0997 12.749 30.0687 13.026C29.8387 15.069 28.8987 16.561 27.2487 17.508C26.0087 18.22 24.4027 18.626 22.3427 18.748C21.7747 18.782 21.3287 18.786 18.8707 18.787C17.0677 18.787 16.7127 18.785 16.7047 18.777V18.776ZM22.4347 12.168C22.4437 12.164 22.4457 12.066 22.4437 11.708L22.4407 11.254L21.6747 11.25L20.9087 11.246V10.765L21.5937 10.761L22.2797 10.757V9.84697L21.5937 9.84397L20.9087 9.83897L20.9057 9.63597L20.9037 9.43197H21.6237C22.1707 9.43197 22.3447 9.42997 22.3537 9.42197C22.3617 9.41497 22.3647 9.30497 22.3647 8.96897C22.3647 8.63497 22.3617 8.52397 22.3537 8.51597C21.5187 8.50247 20.6836 8.50247 19.8487 8.51597C19.8407 8.52397 19.8387 8.93997 19.8387 10.342C19.8387 12.063 19.8387 12.158 19.8537 12.166C19.8727 12.176 22.4167 12.177 22.4337 12.167V12.168H22.4347ZM24.0317 12.168C24.0397 12.163 24.0917 12.023 24.1617 11.816L24.2777 11.472L24.9597 11.47L25.6417 11.467L25.7117 11.675L25.8277 12.023C25.8425 12.0731 25.8623 12.1217 25.8867 12.168C25.8947 12.172 26.1377 12.175 26.4287 12.175C26.8637 12.175 26.9607 12.173 26.9687 12.165C26.9767 12.157 26.8327 11.732 26.3517 10.349C26.0067 9.35497 25.7217 8.53497 25.7157 8.52597L25.7067 8.50797H24.9647C24.3537 8.50797 24.2207 8.50997 24.2117 8.51797C24.2057 8.52397 24.0727 8.89797 23.9157 9.35097L23.2887 11.155C23.1717 11.486 23.0587 11.818 22.9477 12.151C22.9477 12.1575 22.9498 12.1638 22.9537 12.169C22.9627 12.178 24.0167 12.175 24.0317 12.167V12.168ZM24.5997 10.522L24.7697 10.015C24.9297 9.54197 24.9337 9.52897 24.9567 9.52697C24.9717 9.52597 24.9827 9.52997 24.9887 9.53897C24.9987 9.55697 25.3207 10.517 25.3207 10.531C25.3207 10.542 25.2767 10.543 24.9577 10.543H24.5947L24.5997 10.522ZM16.6987 11.24C16.6949 10.938 16.6939 10.636 16.6957 10.334L16.6987 9.43697H17.1067C17.4207 9.43697 17.5287 9.43897 17.5767 9.44697C17.9167 9.50697 18.0927 9.67997 18.1697 10.032C18.1929 10.234 18.1929 10.438 18.1697 10.64C18.0907 11.03 17.8967 11.205 17.4987 11.242C17.3687 11.254 16.7037 11.253 16.6987 11.24Z" fill="#D13288"/>
<path d="M16.7067 18.769C16.7047 18.763 16.7047 17.279 16.7047 15.469L16.7077 12.179L17.1557 12.174C17.6327 12.169 17.6757 12.166 17.8817 12.124C18.5347 11.99 18.9947 11.584 19.1747 10.982C19.2407 10.759 19.2607 10.608 19.2597 10.326C19.2597 10.014 19.2297 9.82996 19.1397 9.59595C19.0475 9.33374 18.8841 9.10242 18.6677 8.92796C18.4057 8.70796 18.0857 8.57796 17.6727 8.52296C17.5647 8.50796 17.4977 8.50596 17.1267 8.50196L16.7027 8.49796V5.22396L16.7227 5.21896C16.7567 5.21196 20.8827 5.21396 21.3627 5.22096C22.2857 5.23696 22.9667 5.28696 23.7037 5.39396C25.8647 5.70396 27.5087 6.44596 28.5737 7.59096C29.3417 8.41796 29.8287 9.46095 30.0207 10.695C30.0507 10.887 30.0867 11.181 30.0877 11.236C30.0877 11.24 29.7457 11.242 29.3277 11.241L28.5687 11.239L28.5667 9.87895C28.5647 8.89095 28.5617 8.51895 28.5547 8.51096C28.5457 8.50196 28.4497 8.50096 28.0277 8.50096C27.7447 8.50096 27.5067 8.50396 27.5007 8.50696C27.4917 8.51196 27.4897 8.88396 27.4917 10.342L27.4937 12.171L28.8017 12.175L30.1097 12.178L30.1127 12.248C30.1147 12.288 30.1117 12.398 30.1057 12.498C30.0497 13.488 29.8607 14.307 29.5177 15.056C29.0897 15.99 28.4277 16.746 27.5297 17.328C26.2747 18.14 24.5617 18.608 22.3567 18.74C21.7687 18.774 21.4337 18.778 18.9897 18.779C17.1757 18.779 16.7097 18.776 16.7077 18.769H16.7067ZM24.0387 12.169C24.0517 12.159 24.0887 12.06 24.1707 11.815L24.2857 11.475L24.9607 11.477L25.6367 11.479L25.7517 11.82C25.8147 12.008 25.8717 12.165 25.8767 12.17C25.8907 12.182 26.9647 12.182 26.9797 12.17C26.9897 12.16 26.9917 12.167 26.7057 11.344L25.8127 8.77696C25.7832 8.68671 25.7501 8.59765 25.7137 8.50996C25.7067 8.50296 25.5707 8.49996 24.9577 8.49996C24.2537 8.49996 24.2107 8.49996 24.2027 8.51396C24.1957 8.52696 24.1147 8.75396 23.8257 9.58796L22.9607 12.077C22.9337 12.149 22.9327 12.172 22.9547 12.177C22.9627 12.179 23.2067 12.182 23.4947 12.182C23.9837 12.182 24.0217 12.182 24.0387 12.169ZM24.6047 10.531L24.8617 9.76896C24.9377 9.53996 24.9417 9.53296 24.9617 9.53496C24.9817 9.53695 24.9867 9.54596 25.0087 9.61096L25.1727 10.101C25.2487 10.331 25.3127 10.521 25.3127 10.527C25.3127 10.533 25.2177 10.535 24.9587 10.535C24.8407 10.5362 24.7227 10.5349 24.6047 10.531ZM22.4527 11.713C22.4547 11.352 22.4527 11.253 22.4427 11.249C22.1861 11.2422 21.9294 11.2399 21.6727 11.242H20.9127V10.768H21.5937C22.1567 10.768 22.2747 10.767 22.2837 10.758C22.2917 10.751 22.2927 10.623 22.2917 10.294L22.2887 9.83996L21.6007 9.83796L20.9137 9.83596V9.43995H21.6257C22.1007 9.43995 22.3457 9.43695 22.3557 9.43295C22.3737 9.42495 22.3737 9.41096 22.3737 8.96996C22.3737 8.52996 22.3737 8.51596 22.3567 8.50796C21.9374 8.4989 21.5181 8.49657 21.0987 8.50096C19.9827 8.50096 19.8567 8.50096 19.8437 8.51196C19.8317 8.52396 19.8297 8.69995 19.8297 10.337C19.8297 11.335 19.8317 12.156 19.8347 12.163C19.8407 12.174 19.9617 12.175 21.1447 12.173L22.4497 12.171L22.4527 11.714V11.713ZM16.7087 11.237C16.7027 10.937 16.7007 10.637 16.7027 10.337V9.43995H17.0857C17.4937 9.43995 17.5677 9.44495 17.6887 9.47995C17.9627 9.55795 18.1107 9.74195 18.1687 10.075C18.1867 10.187 18.1887 10.475 18.1687 10.593C18.1287 10.833 18.0547 10.983 17.9237 11.088C17.8593 11.1406 17.7842 11.1788 17.7037 11.2C17.5797 11.236 17.4867 11.243 17.0837 11.243C16.8807 11.243 16.7127 11.24 16.7087 11.237Z" fill="#D30071"/>
<path d="M8.7347 20.936C8.7317 20.93 8.7307 16.904 8.7317 11.989L8.7347 3.04895H15.1937C21.9187 3.04895 21.7897 3.04895 22.3867 3.08095C24.6757 3.20395 26.6097 3.65295 28.1387 4.41495C28.8547 4.77195 29.4437 5.16495 30.0007 5.65695C30.6042 6.1837 31.1159 6.80722 31.5147 7.50195C32.1067 8.52995 32.4647 9.71395 32.5817 11.028C32.6317 11.591 32.6347 12.276 32.5907 12.842C32.4067 15.19 31.5127 17.044 29.9107 18.4039C29.2274 18.9791 28.4606 19.4471 27.6367 19.792C26.8977 20.1089 26.1967 20.33 25.3247 20.5219C24.1777 20.774 23.0197 20.902 21.6027 20.937C21.4147 20.9419 18.8257 20.945 15.0157 20.945C10.0017 20.945 8.7367 20.9429 8.7337 20.9349V20.936H8.7347ZM21.5617 20.114C24.1347 20.056 26.1927 19.6159 27.8067 18.7759C30.3647 17.4459 31.6727 15.146 31.6727 11.976C31.6727 10.453 31.3687 9.14795 30.7527 8.02295C30.2067 7.02595 29.4047 6.19395 28.3627 5.54295C27.6057 5.06995 26.6727 4.67695 25.6717 4.40995C24.4647 4.08895 23.1537 3.91595 21.6117 3.87695C21.1327 3.86695 9.7037 3.86695 9.6897 3.87995C9.6747 3.89295 9.6747 20.1 9.6897 20.113C9.7037 20.125 21.0397 20.1259 21.5617 20.114ZM11.2287 15.977V13.177L13.0367 13.18L14.8437 13.181V18.775L13.0367 18.777L11.2287 18.7789V15.978V15.977ZM12.8357 12.283C12.3983 12.2485 11.9777 12.0999 11.6157 11.852C11.1982 11.5662 10.9092 11.1282 10.8107 10.632C10.7874 10.436 10.7874 10.2379 10.8107 10.042C10.8917 9.61895 11.1157 9.23695 11.4447 8.95995C12.0117 8.46695 12.8277 8.27495 13.6067 8.44995C14.4387 8.63595 15.0807 9.22995 15.2457 9.96495C15.3387 10.383 15.2717 10.821 15.0577 11.192C14.9487 11.393 14.8017 11.5719 14.6247 11.717C14.449 11.8744 14.2473 12.0003 14.0287 12.089C13.8107 12.181 13.6007 12.239 13.3687 12.269C13.1917 12.2877 13.0135 12.2924 12.8357 12.283Z" fill="#270E24"/>
</g>
<defs>
<clipPath id="clip0_3_140">
<rect width="38" height="24" fill="white" transform="translate(0.666687)"/>
</clipPath>
</defs>
</svg>
