<svg width="32" height="22" viewBox="0 0 32 22" fill="none" xmlns="http://www.w3.org/2000/svg">
<g clip-path="url(#clip0_3_127)">
<path d="M27.3334 0H4.66669C2.45755 0 0.666687 1.79086 0.666687 4V18C0.666687 20.2091 2.45755 22 4.66669 22H27.3334C29.5425 22 31.3334 20.2091 31.3334 18V4C31.3334 1.79086 29.5425 0 27.3334 0Z" fill="#FEB4C7"/>
<path fill-rule="evenodd" clip-rule="evenodd" d="M5.41929 14.098H4.17145V8.25H5.41929V14.098ZM8.53462 8.25H7.31386C7.31386 9.3262 6.85383 10.3139 6.05176 10.9602L5.56811 11.3497L7.44209 14.0982H8.98289L7.25856 11.5692C8.07589 10.6938 8.53462 9.51607 8.53462 8.25ZM10.525 14.0969H9.34649V8.2516H10.525V14.0969ZM14.0854 10.053V10.3117C13.7674 10.0783 13.3836 9.9412 12.9697 9.9412C11.8742 9.9412 10.986 10.8965 10.986 12.0748C10.986 13.2531 11.8742 14.2083 12.9697 14.2083C13.3836 14.2083 13.7674 14.0712 14.0854 13.838V14.0964H15.211V10.053H14.0854ZM14.082 12.0748C14.082 12.6493 13.6254 13.1151 13.0621 13.1151C12.4988 13.1151 12.0422 12.6493 12.0422 12.0748C12.0422 11.5003 12.4988 11.0346 13.0621 11.0346C13.6254 11.0346 14.082 11.5003 14.082 12.0748ZM25.9598 10.3117V10.053H27.0853V14.0964H25.9598V13.838C25.6418 14.0712 25.258 14.2083 24.844 14.2083C23.7484 14.2083 22.8604 13.2531 22.8604 12.0748C22.8604 10.8965 23.7484 9.9412 24.844 9.9412C25.258 9.9412 25.6418 10.0783 25.9598 10.3117ZM24.9364 13.1151C25.4997 13.1151 25.9563 12.6493 25.9563 12.0748C25.9563 11.5003 25.4997 11.0346 24.9364 11.0346C24.3732 11.0346 23.9166 11.5003 23.9166 12.0748C23.9166 12.6493 24.3732 13.1151 24.9364 13.1151ZM27.5738 13.4219C27.5738 13.0023 27.89 12.6623 28.2801 12.6623C28.6702 12.6623 28.9864 13.0023 28.9864 13.4219C28.9864 13.8415 28.6702 14.1816 28.2801 14.1816C27.89 14.1816 27.5738 13.8415 27.5738 13.4219ZM20.8602 9.9442C20.4106 9.9442 19.9852 10.0943 19.7006 10.5086V10.0532H18.58V14.0964H19.7144V11.9715C19.7144 11.3567 20.0978 11.0556 20.5593 11.0556C21.054 11.0556 21.3384 11.3734 21.3384 11.9632V14.0964H22.4626V11.5251C22.4626 10.5841 21.767 9.9442 20.8602 9.9442ZM16.9522 10.0531V10.5797C17.1778 10.2638 17.5982 10.0533 18.0552 10.0533V11.2299L18.049 11.2296C18.0466 11.2295 18.0443 11.2293 18.0419 11.2293C17.5965 11.2293 16.9547 11.5717 16.9547 12.2086V14.0964H15.7998V10.0531H16.9522Z" fill="#270E24"/>
</g>
<defs>
<clipPath id="clip0_3_127">
<rect width="30.6667" height="22" fill="white" transform="translate(0.666687)"/>
</clipPath>
</defs>
</svg>
