<svg width="12" height="12" viewBox="0 0 12 12" fill="none" xmlns="http://www.w3.org/2000/svg">
<g clip-path="url(#clip0_6_335)">
<path fill-rule="evenodd" clip-rule="evenodd" d="M3.7 1C3.7 0.723858 3.92385 0.5 4.2 0.5H7.8C8.07614 0.5 8.3 0.723858 8.3 1C8.3 1.27614 8.07614 1.5 7.8 1.5H4.2C3.92385 1.5 3.7 1.27614 3.7 1ZM0.5 2.8C0.5 2.52386 0.723858 2.3 1 2.3H11C11.2761 2.3 11.5 2.52386 11.5 2.8C11.5 3.07614 11.2761 3.3 11 3.3H10.3V9.2C10.3 10.4761 9.27614 11.5 8 11.5H4C2.71492 11.5 1.7 10.4671 1.7 9.15V3.3H1C0.723858 3.3 0.5 3.07614 0.5 2.8ZM2.7 3.3V9.15C2.7 9.93288 3.28508 10.5 4 10.5H8C8.72385 10.5 9.3 9.92386 9.3 9.2V3.3H2.7ZM4.65 4.6C4.92614 4.6 5.15 4.82386 5.15 5.1V8.75C5.15 9.02614 4.92614 9.25 4.65 9.25C4.37386 9.25 4.15 9.02614 4.15 8.75V5.1C4.15 4.82386 4.37386 4.6 4.65 4.6ZM7.35 4.6C7.62614 4.6 7.85 4.82386 7.85 5.1V8.75C7.85 9.02614 7.62614 9.25 7.35 9.25C7.07386 9.25 6.85 9.02614 6.85 8.75V5.1C6.85 4.82386 7.07386 4.6 7.35 4.6Z" fill="#270E24"/>
</g>
<defs>
<clipPath id="clip0_6_335">
<rect width="12" height="12" fill="white"/>
</clipPath>
</defs>
</svg>